<?xml version="1.0" standalone="no"?>
<!DOCTYPE svg PUBLIC "-//W3C//DTD SVG 20010904//EN"
 "http://www.w3.org/TR/2001/REC-SVG-20010904/DTD/svg10.dtd">
<svg version="1.0" xmlns="http://www.w3.org/2000/svg"
 width="993.000000pt" height="993.000000pt" viewBox="0 0 993.000000 993.000000"
 preserveAspectRatio="xMidYMid meet">
<metadata>
Created by potrace 1.14, written by Peter Selinger 2001-2017
</metadata>
<g transform="translate(0.000000,993.000000) scale(0.100000,-0.100000)"
fill="#000000" stroke="none">
<path d="M4799 9923 c-56 -3 -68 -7 -72 -23 -6 -24 -34 -26 -66 -4 -20 14 -40
16 -130 10 -95 -5 -331 -36 -404 -52 -21 -4 -26 -9 -18 -17 6 -6 11 -28 11
-49 0 -32 7 -45 48 -86 27 -26 48 -55 46 -64 -4 -29 -68 -84 -120 -103 -27
-10 -68 -26 -91 -36 -24 -10 -43 -14 -43 -9 0 4 -18 27 -40 50 -22 23 -40 46
-40 52 0 16 -49 58 -67 58 -9 0 -21 7 -27 15 -7 9 -32 17 -64 19 -45 3 -52 1
-48 -13 13 -48 15 -112 5 -161 -15 -72 -14 -93 5 -135 15 -32 29 -41 73 -49
65 -13 137 -37 144 -48 12 -18 11 -46 -3 -71 -6 -13 -13 -78 -14 -152 -4 -136
-16 -221 -38 -250 -11 -15 -15 -11 -36 39 -14 31 -28 56 -32 56 -13 0 -9 -48
5 -53 9 -4 9 -6 0 -6 -22 -2 -37 43 -38 113 -2 62 -4 71 -28 88 -17 12 -27 29
-27 44 0 24 -41 90 -85 138 -12 13 -43 31 -70 41 -28 10 -64 29 -82 42 -42 31
-63 29 -98 -7 -16 -16 -35 -30 -42 -30 -7 0 -13 -4 -13 -10 0 -5 -9 -10 -20
-10 -24 0 -25 7 -5 53 23 56 34 117 40 227 3 56 8 106 11 111 6 10 -110 -31
-234 -83 -42 -17 -78 -35 -80 -39 -2 -4 -12 -17 -23 -30 -23 -27 -24 -45 -3
-84 9 -16 17 -49 19 -72 2 -24 7 -47 10 -53 3 -5 3 -15 0 -20 -9 -15 -35 14
-35 39 0 12 -6 21 -14 21 -9 0 -12 7 -9 19 5 18 -20 76 -50 115 -14 18 -18 17
-133 -38 -136 -65 -334 -176 -334 -186 0 -4 6 -13 14 -19 12 -10 12 -16 -1
-40 -15 -25 -54 -51 -78 -51 -6 0 -21 9 -33 21 l-23 20 -67 -42 c-418 -263
-909 -717 -1218 -1126 -54 -71 -55 -74 -44 -112 6 -22 8 -57 4 -78 -3 -21 1
-76 10 -123 37 -204 60 -552 61 -915 0 -275 -3 -349 -12 -348 -8 2 -13 -7 -13
-22 0 -14 -4 -25 -10 -25 -5 0 -10 -17 -11 -37 0 -21 -5 -47 -10 -58 -9 -19
-9 -19 -5 2 2 12 -2 27 -10 34 -8 6 -14 23 -14 38 0 23 -32 88 -49 101 -4 3
-17 19 -29 37 -23 32 -31 118 -12 125 19 6 12 173 -15 353 -19 123 -26 269
-27 533 0 122 -2 222 -4 222 -5 0 -77 -108 -139 -210 -75 -123 -230 -425 -291
-565 -540 -1252 -548 -2661 -23 -3904 l50 -119 32 9 c17 5 83 16 145 24 l114
15 31 -26 c17 -15 39 -43 48 -63 24 -54 37 -62 87 -49 23 6 42 14 42 19 0 5
15 12 33 17 22 6 31 14 29 25 -2 10 3 17 10 18 104 5 140 0 154 -20 19 -26 37
-27 29 -2 -5 15 1 24 24 35 33 18 55 21 31 6 -12 -8 -12 -10 -1 -10 9 0 11 -7
6 -22 -4 -13 -11 -59 -16 -103 -10 -104 -25 -173 -44 -201 -8 -13 -15 -35 -15
-49 0 -59 -23 -115 -62 -155 -35 -35 -38 -40 -19 -40 11 0 21 5 21 11 0 5 4 7
10 4 5 -3 10 -20 10 -36 0 -22 -6 -32 -26 -39 -40 -15 -47 -13 -40 16 6 24 5
26 -16 21 -70 -15 -240 -86 -233 -97 3 -4 23 -10 45 -14 38 -6 54 -26 30 -41
-18 -11 -11 -39 23 -88 36 -54 69 -61 75 -17 2 14 9 31 14 38 14 16 59 15 82
-1 22 -16 17 -53 -7 -49 -17 3 -67 -25 -67 -38 0 -4 20 -10 45 -13 26 -2 48
-7 51 -10 3 -3 7 -44 8 -91 l3 -86 59 -72 c82 -101 368 -392 494 -503 468
-410 1010 -733 1580 -941 333 -121 741 -220 1085 -263 992 -124 2026 60 2900
517 l130 68 -2 83 c-2 46 -7 89 -12 95 -5 6 -12 38 -16 71 -10 91 -16 300 -8
291 7 -7 14 -63 32 -266 11 -115 29 -241 36 -248 6 -6 142 73 281 163 203 132
451 324 592 459 57 54 62 63 62 101 0 22 5 46 12 53 9 9 9 20 -1 47 -13 38
-17 147 -5 166 5 9 11 7 21 -7 12 -16 13 29 9 326 -2 190 -9 381 -14 425 -6
44 -13 105 -17 135 -3 30 -15 100 -25 155 -11 55 -27 139 -36 188 -9 48 -20
87 -24 87 -3 0 -12 -69 -19 -152 -6 -84 -14 -174 -17 -200 -6 -46 -17 -62 -26
-35 -6 17 25 319 34 333 4 6 5 46 2 90 -2 43 -4 90 -4 103 0 14 -5 28 -12 32
-8 5 -11 29 -10 66 2 70 -17 314 -26 328 -4 6 -12 44 -17 85 -7 51 -14 74 -23
72 -14 -2 -35 45 -26 59 3 6 3 33 -1 62 -7 46 -9 49 -17 27 -13 -35 -28 -9
-28 50 -1 36 -3 41 -11 27 -6 -9 -9 -31 -7 -47 5 -50 -17 -33 -23 17 -3 27 -7
38 -7 26 -3 -32 -20 -29 -28 4 -4 16 -10 33 -14 38 -3 6 -12 30 -20 55 -29
101 -42 136 -54 150 -8 8 -19 31 -25 51 -14 44 -51 91 -51 66 0 -29 -20 -18
-27 13 -3 17 -10 33 -14 36 -5 3 -9 16 -9 29 0 15 -5 23 -12 20 -8 -3 -23 14
-37 39 -39 74 -129 175 -193 217 -50 32 -98 50 -98 36 0 -1 33 -36 73 -77 41
-44 86 -103 106 -140 18 -36 53 -101 77 -144 24 -44 44 -85 44 -92 0 -7 3 -14
8 -16 10 -4 46 -82 66 -143 59 -182 77 -328 75 -615 -1 -99 3 -195 9 -220 14
-58 15 -423 1 -510 -5 -36 -9 -108 -9 -161 1 -87 -13 -241 -26 -296 -3 -11
-14 -23 -23 -26 -14 -3 -18 -15 -18 -46 0 -23 -5 -47 -12 -54 -6 -6 -11 -25
-11 -41 -1 -27 -2 -28 -11 -13 -6 10 -8 26 -4 35 6 17 -11 105 -27 135 -6 12
-5 23 1 31 12 14 -5 34 -44 54 -12 6 -27 22 -34 36 -12 22 -12 29 3 50 20 31
20 36 1 36 -8 0 -19 9 -25 20 -8 15 -6 21 10 30 24 13 25 24 5 48 -74 83 -75
86 -69 119 5 26 2 34 -12 40 -10 4 -19 2 -22 -5 -2 -7 -8 -12 -12 -12 -13 0
-43 67 -38 82 3 7 -1 19 -8 26 -7 7 -11 19 -8 26 7 18 -26 29 -60 20 -21 -5
-26 -3 -26 12 0 9 -11 36 -25 60 -21 35 -23 47 -15 70 9 23 15 26 40 20 22 -4
30 -2 30 9 0 13 -16 18 -47 14 -13 -1 -21 36 -10 49 15 19 8 93 -10 115 -9 9
-26 17 -38 17 -20 0 -71 31 -86 53 -4 6 -17 11 -30 12 -38 4 -39 4 -39 21 0 9
9 18 21 21 12 4 18 11 15 20 -3 8 -6 19 -6 24 0 5 -12 14 -26 19 -27 11 -24
32 4 29 29 -3 42 1 42 11 0 6 -13 10 -28 10 -20 0 -33 7 -42 25 -8 14 -25 28
-39 31 -37 8 -75 28 -62 32 6 2 11 20 11 39 0 30 -2 34 -15 23 -8 -7 -15 -11
-16 -9 0 2 -2 13 -4 24 -16 85 -14 82 -40 77 -31 -5 -34 -39 -6 -68 15 -17 16
-23 6 -37 -16 -23 -48 -21 -70 3 -17 18 -17 21 -1 55 17 36 14 59 -7 52 -7 -2
-23 4 -36 14 -13 11 -32 19 -43 19 -21 0 -44 41 -35 64 3 8 16 16 29 18 31 4
31 34 0 30 -16 -1 -25 4 -29 17 -3 11 -11 22 -19 25 -19 7 -18 36 1 36 8 0 19
9 25 20 10 19 6 24 -14 21 -4 -1 -14 3 -22 10 -19 16 0 49 30 49 20 0 23 5 24
46 0 36 -6 56 -28 86 -28 38 -30 68 -6 68 8 0 13 26 14 83 1 82 -10 121 -35
123 -7 1 -24 2 -38 3 -34 2 -32 22 5 49 16 13 37 39 45 59 16 39 21 163 6 163
-17 0 -39 -29 -51 -65 -6 -19 -16 -33 -21 -30 -5 4 -9 -5 -9 -19 0 -18 -5 -26
-17 -26 -13 0 -14 3 -5 8 9 6 7 14 -8 30 -12 12 -25 22 -30 22 -22 0 -8 32 27
64 36 33 37 35 25 68 -20 57 -16 78 18 84 25 6 31 14 50 70 11 35 20 71 20 82
0 10 5 23 10 28 11 11 4 44 -9 44 -6 0 -67 -93 -91 -139 l-13 -25 -11 35 c-8
26 -17 35 -37 37 -25 3 -49 35 -49 66 0 8 -7 19 -16 27 -13 10 -17 10 -24 0
-6 -10 -10 -9 -18 5 -10 18 -11 17 -21 -6 -6 -14 -15 -33 -21 -42 -5 -10 -14
-26 -18 -35 -5 -10 -22 -25 -39 -33 -22 -11 -36 -28 -48 -62 -9 -26 -14 -51
-11 -56 10 -17 -34 -104 -49 -98 -8 3 -17 0 -21 -6 -5 -7 -12 -5 -21 8 -9 12
-11 33 -7 66 5 33 3 48 -5 48 -6 0 -11 -6 -12 -12 0 -7 -5 -1 -11 15 -5 15
-14 27 -19 27 -5 0 -9 9 -9 20 0 11 -4 20 -10 20 -5 0 -10 -4 -10 -9 0 -5 -7
-11 -15 -15 -13 -5 -13 -1 0 32 14 33 14 38 0 48 -8 6 -15 21 -15 34 0 17 4
21 18 15 29 -12 45 -11 50 4 3 10 0 12 -11 8 -15 -6 -31 25 -19 37 12 12 31 5
26 -9 -4 -8 -2 -15 3 -15 4 0 8 21 8 48 1 32 5 46 13 45 7 -2 12 2 12 8 0 5 5
7 11 4 7 -5 9 12 7 52 -3 54 -2 58 18 56 20 -2 21 0 10 23 -6 14 -17 23 -26
21 -21 -5 -42 17 -29 30 6 6 18 25 27 44 11 22 23 33 35 31 9 -2 17 2 17 8 0
5 -10 10 -23 10 -18 0 -23 6 -25 30 -2 21 2 30 13 30 21 0 30 27 15 45 -9 11
-9 27 0 71 15 72 6 119 -26 140 -31 21 -36 16 -45 -44 -4 -26 -17 -81 -28
-122 -28 -100 -26 -127 9 -180 21 -31 26 -46 17 -52 -6 -4 -17 -2 -24 4 -21
17 -27 3 -34 -75 -7 -71 -40 -147 -87 -200 -51 -57 -142 -227 -142 -266 0 -22
-10 -37 -42 -64 -24 -19 -56 -54 -73 -77 -51 -71 -95 -119 -127 -134 -28 -14
-33 -14 -77 10 -26 13 -79 51 -117 83 -38 31 -100 79 -137 105 -37 26 -97 76
-132 112 -35 35 -68 64 -73 64 -9 0 -83 57 -156 120 -209 179 -287 250 -461
420 -93 91 -216 209 -273 262 -118 112 -117 98 -17 198 36 36 65 72 65 81 0 9
7 23 16 30 12 10 14 23 10 52 -5 29 -2 44 13 63 23 29 29 79 36 327 5 138 3
182 -7 195 -11 13 -11 14 2 11 8 -3 29 -30 45 -61 17 -31 37 -64 46 -74 9 -11
37 -62 62 -114 25 -52 59 -112 76 -134 17 -21 31 -47 31 -57 0 -10 16 -33 35
-50 25 -23 33 -38 30 -53 -4 -15 4 -30 25 -50 25 -23 30 -34 25 -57 -9 -40 0
-50 32 -38 15 6 38 7 50 4 28 -7 55 -56 35 -63 -16 -5 -15 -24 1 -47 13 -17
15 -17 37 5 l23 23 18 -24 c22 -28 21 -74 -1 -74 -25 0 -17 -30 9 -33 14 -2
34 -10 45 -17 12 -7 30 -11 42 -9 13 2 34 -8 54 -26 39 -35 39 -35 66 -16 31
22 107 -6 134 -49 12 -20 42 -44 75 -60 30 -16 52 -32 49 -37 -10 -17 25 -40
48 -31 13 4 30 8 38 8 9 0 14 8 12 18 -3 18 16 15 52 -9 17 -12 23 -11 38 3
10 9 18 24 18 33 0 18 39 40 72 40 22 0 91 67 114 112 13 25 51 52 152 108 23
13 69 50 94 77 27 28 58 75 77 118 12 28 27 57 32 65 5 8 12 22 15 30 26 68
40 97 51 111 8 9 22 39 32 65 18 45 43 75 55 63 10 -10 6 -97 -8 -194 -14 -96
-25 -149 -61 -299 -16 -70 -13 -85 21 -86 6 0 36 -11 65 -24 69 -31 147 -110
202 -206 63 -110 128 -195 180 -235 25 -19 58 -51 75 -70 l29 -36 27 45 c15
25 39 52 54 60 58 31 168 169 300 379 98 156 126 213 142 287 13 56 16 64 65
180 15 35 36 94 46 130 10 36 29 106 44 155 14 50 30 119 34 155 15 115 42
253 61 315 11 33 22 85 26 115 3 30 12 89 19 131 12 63 19 299 16 475 -1 29
-2 30 -51 31 l-50 1 -22 -49 c-17 -37 -28 -49 -45 -49 -23 0 -52 -23 -54 -43
-3 -28 4 -62 13 -68 5 -4 15 -17 22 -30 16 -32 -7 -104 -41 -127 -14 -9 -40
-32 -58 -49 -19 -18 -43 -33 -53 -33 -28 0 -31 -7 -19 -51 7 -29 6 -52 -3 -82
-19 -65 -47 -75 -69 -26 -7 17 -23 35 -36 41 -12 5 -22 15 -23 21 -9 103 -10
185 -3 217 10 43 0 60 -35 60 -16 0 -23 8 -27 29 -4 16 -15 38 -26 48 -24 22
-37 68 -22 77 14 9 14 51 0 77 -6 11 -7 38 -4 64 10 61 55 108 125 130 30 9
64 21 75 26 11 5 33 13 48 19 28 10 63 70 58 99 -2 13 -43 54 -108 111 -27 23
-60 26 -88 6 -17 -11 -104 -27 -155 -28 -8 -1 -20 -5 -27 -10 -7 -5 -17 -7
-23 -3 -21 13 -31 -7 -10 -22 17 -12 19 -18 9 -29 -6 -8 -19 -14 -29 -14 -21
0 -50 -41 -50 -70 0 -11 -5 -20 -11 -20 -13 0 -8 -70 11 -155 11 -52 5 -240
-10 -285 -4 -14 -13 -45 -20 -70 -7 -25 -16 -54 -21 -65 -4 -11 -15 -37 -23
-57 -8 -21 -19 -38 -24 -38 -5 0 -12 -8 -14 -18 -6 -23 -94 -52 -158 -52 -57
0 -77 15 -85 68 -4 20 -8 42 -9 47 -2 6 -6 -51 -10 -125 -8 -156 -21 -236 -50
-302 -21 -48 -36 -54 -36 -14 0 30 -48 65 -61 45 -5 -8 -14 -14 -20 -14 -12 0
-23 -16 -33 -47 -3 -10 -11 -15 -20 -12 -28 11 -65 -43 -72 -104 -5 -42 -13
-63 -32 -80 -28 -27 -65 -26 -71 3 -4 25 26 160 46 202 12 23 14 51 11 102 -6
78 -29 128 -72 151 -26 14 -28 14 -52 -15 -14 -18 -24 -44 -25 -65 l-1 -35
-12 29 c-10 22 -14 25 -19 12 -5 -12 -12 -14 -31 -7 -31 13 -36 6 -36 -46 0
-24 -2 -43 -4 -43 -12 0 -64 63 -70 83 -3 15 -13 24 -23 23 -9 0 -29 18 -46
42 -20 29 -33 40 -39 34 -7 -7 -17 -7 -30 1 -15 10 -21 9 -28 -4 -5 -9 -24
-16 -43 -17 l-34 -1 2 52 c2 29 3 55 4 59 0 4 17 14 36 22 38 16 55 43 35 56
-18 11 -69 -5 -96 -31 -21 -20 -29 -21 -106 -14 -55 5 -101 15 -136 32 l-53
25 -37 -20 c-43 -22 -53 -55 -23 -74 12 -7 21 -17 21 -21 0 -19 -54 -77 -71
-77 -9 0 -21 -9 -24 -20 -9 -29 -83 -67 -134 -69 -26 -1 -54 -10 -69 -21 -14
-12 -40 -20 -62 -20 -30 0 -39 -5 -49 -27 -15 -33 -26 -203 -14 -219 4 -6 22
-17 38 -25 37 -18 44 -58 19 -105 -24 -44 -41 -43 -60 2 -9 21 -22 43 -30 51
-8 8 -21 28 -29 44 -16 31 -29 36 -41 18 -5 -8 -10 -6 -16 5 -5 9 -7 20 -3 25
6 11 -89 41 -128 41 -18 0 -28 7 -32 23 -13 46 -29 66 -55 72 -48 10 -113 130
-145 265 -30 125 -74 270 -112 365 l-36 90 12 255 c7 140 17 278 22 305 22
118 28 198 19 274 -7 63 -13 254 -11 319 1 21 38 13 93 -19 61 -37 120 -59
154 -59 21 0 24 5 24 34 0 38 12 45 110 67 67 14 127 47 134 73 4 14 11 17 30
12 23 -6 32 1 72 54 26 33 56 63 68 66 12 4 46 23 76 43 55 37 178 91 205 91
7 0 74 20 149 45 74 25 163 48 198 51 35 3 87 15 116 25 29 10 70 19 92 19 21
0 51 5 67 11 36 15 158 14 214 -1 31 -8 57 -26 85 -57 37 -40 45 -44 72 -38
28 6 32 4 38 -22 10 -38 33 -73 50 -73 8 0 21 -15 29 -32 32 -68 44 -83 67
-83 18 0 23 -5 21 -25 -3 -37 36 -160 50 -160 7 0 21 7 31 15 19 14 20 23 24
133 1 38 6 52 15 49 13 -5 62 19 86 41 8 8 24 18 37 22 13 5 25 21 28 37 9 39
76 107 124 126 l40 16 21 -35 c12 -19 21 -48 21 -64 0 -16 6 -41 14 -57 7 -15
20 -41 27 -57 25 -53 54 -65 159 -69 64 -3 94 -8 92 -16 -1 -6 12 -11 34 -11
51 0 67 -12 94 -69 15 -33 35 -58 57 -71 18 -11 38 -31 45 -45 6 -14 22 -28
35 -31 13 -4 22 -9 19 -12 -3 -3 1 -10 10 -16 14 -10 14 -15 0 -41 -9 -17 -16
-45 -16 -63 0 -18 -4 -31 -9 -27 -5 3 -12 1 -16 -5 -18 -30 -115 10 -115 47 0
26 -72 88 -147 126 -56 28 -84 37 -120 36 -77 -3 -248 20 -280 36 -34 18 -86
19 -116 3 -12 -7 -40 -14 -62 -18 l-40 -5 2 -72 c1 -46 9 -84 20 -105 9 -18
20 -55 24 -83 10 -66 27 -152 33 -173 5 -13 15 -16 48 -14 35 3 50 -2 80 -25
21 -15 37 -34 38 -41 0 -8 6 -26 14 -40 8 -15 17 -35 20 -44 3 -11 12 -15 25
-11 13 3 23 0 27 -11 5 -13 8 -13 20 -1 8 7 14 18 14 23 0 16 31 72 41 72 5 0
9 6 9 13 0 39 143 113 223 115 27 1 62 10 79 20 17 9 39 21 49 27 11 5 19 14
19 20 0 5 4 16 9 24 14 22 44 -12 36 -40 -6 -17 -9 -19 -16 -8 -13 21 -12 -7
2 -33 6 -11 7 -23 2 -27 -16 -12 -34 -63 -27 -83 3 -11 0 -27 -9 -36 -9 -11
-13 -30 -9 -55 3 -31 8 -38 26 -36 40 3 53 -2 31 -12 -15 -7 -11 -8 18 -5 31
4 37 2 37 -14 0 -27 17 -34 23 -9 4 16 11 19 26 14 15 -5 23 -1 28 12 4 10 17
34 29 53 13 19 35 69 50 110 15 41 40 89 55 105 16 17 29 39 29 49 0 10 4 14
12 10 7 -4 8 -3 4 4 -4 6 1 23 10 37 9 13 20 51 24 82 4 32 17 104 29 161 15
74 21 140 21 238 l0 134 -46 33 c-25 17 -94 62 -154 99 l-108 67 -21 -25 c-20
-23 -32 -28 -59 -25 -8 1 -25 -5 -39 -14 -13 -9 -32 -14 -41 -10 -13 5 -14 8
-3 15 8 4 11 15 8 25 -4 9 -11 14 -16 10 -5 -3 -13 4 -16 16 -4 12 -3 24 3 28
5 3 13 20 16 37 7 31 5 33 -57 68 -35 19 -73 33 -83 31 -228 -52 -279 -54
-324 -15 -13 11 -26 20 -29 20 -4 0 -27 18 -51 40 -71 62 -73 64 -113 88 -21
12 -46 22 -55 22 -9 0 -28 6 -42 13 -25 13 -72 6 -94 -14 -4 -4 -18 4 -31 19
-22 25 -23 26 -49 9 -32 -22 -63 -9 -72 29 -7 27 14 61 23 37 3 -7 13 -13 23
-13 9 0 23 -7 30 -15 9 -11 22 -14 41 -10 21 5 31 1 42 -16 22 -30 40 -15 33
26 -5 26 -3 36 11 44 10 5 16 12 13 14 -3 3 -48 18 -100 35 -90 28 -95 28
-102 11 -10 -26 -20 -24 -94 12 -52 26 -66 29 -79 19 -8 -7 -15 -18 -15 -24 0
-7 -14 -10 -41 -8 -30 3 -43 0 -53 -13 -17 -24 -69 -12 -91 21 -15 23 -19 24
-33 12 -24 -20 -46 -17 -50 7 -2 11 -7 29 -12 40 -5 11 -10 31 -12 44 -4 31
-24 38 -33 12 -8 -28 -28 -27 -40 1 -6 13 -19 24 -30 26 -15 3 -17 1 -9 -8 14
-14 -3 -67 -23 -74 -9 -4 -11 5 -7 34 5 34 3 39 -10 34 -9 -3 -20 -20 -25 -38
l-9 -31 -1 36 c-1 44 -22 75 -45 66 -12 -5 -16 -20 -16 -62 0 -65 -10 -69 -57
-20 -25 25 -45 36 -75 40 -45 6 -85 27 -106 57 -7 10 -25 18 -39 18 -21 0 -23
-2 -13 -15 6 -8 9 -23 5 -34 -4 -12 1 -33 11 -51 10 -16 14 -33 10 -37 -10
-10 -67 59 -61 75 2 6 -2 12 -9 12 -17 0 -27 25 -20 45 5 13 -7 15 -72 15
l-79 -1 28 -24 c15 -13 27 -29 27 -35 0 -5 9 -10 21 -10 15 0 20 -5 17 -22 -5
-34 -20 -31 -67 13 -25 22 -58 43 -73 46 -16 3 -33 14 -39 24 -10 20 -42 21
-230 12z m641 -243 c0 -5 -2 -10 -4 -10 -3 0 -8 5 -11 10 -3 6 -1 10 4 10 6 0
11 -4 11 -10z m775 -8 c18 -13 36 -52 24 -52 -11 0 -48 40 -49 53 0 9 12 9 25
-1z m-817 -73 c-3 -8 -7 -3 -11 10 -4 17 -3 21 5 13 5 -5 8 -16 6 -23z m780
-14 c27 -31 27 -35 4 -35 -18 0 -40 19 -56 48 -13 23 30 13 52 -13z m132 -29
c0 -14 -67 -43 -76 -33 -3 3 4 8 15 12 12 3 21 13 21 21 0 8 9 14 20 14 11 0
20 -6 20 -14z m-156 -52 c16 -19 26 -37 23 -40 -8 -8 -77 49 -77 64 0 22 24
11 54 -24z m56 -65 c0 -6 -4 -7 -10 -4 -5 3 -10 11 -10 16 0 6 5 7 10 4 6 -3
10 -11 10 -16z m-2970 -189 c0 -5 -8 -10 -17 -10 -15 0 -16 2 -3 10 19 12 20
12 20 0z m4044 -76 c20 5 24 3 20 -9 -4 -8 -1 -15 5 -15 14 0 15 -57 1 -65 -5
-3 -10 -15 -10 -27 0 -17 -4 -19 -27 -13 -16 3 -29 11 -31 16 -2 5 -10 9 -19
9 -8 0 -28 9 -44 21 -37 26 -41 76 -6 84 45 9 72 10 78 1 4 -5 18 -6 33 -2z
m-3834 -84 c18 -23 32 -52 32 -69 1 -17 4 -28 9 -26 11 8 74 -60 71 -77 -4
-19 -82 -9 -129 15 -26 14 -33 24 -33 47 0 23 -5 30 -19 30 -41 0 -49 10 -45
53 5 47 9 54 44 60 14 2 28 5 32 6 3 0 20 -17 38 -39z m-367 -22 c17 -13 38
-31 45 -40 7 -10 19 -18 27 -18 16 0 24 -23 21 -61 -3 -39 -14 -49 -54 -48
-20 1 -41 0 -47 -1 -39 -9 -65 19 -86 94 -10 35 7 83 31 90 27 7 31 6 63 -16z
m-13 -382 c24 -4 66 -20 92 -36 26 -16 60 -29 75 -28 15 0 61 0 102 -2 69 -2
77 -5 108 -35 61 -59 52 -125 -19 -140 -16 -4 -34 -15 -40 -24 -9 -16 -17 -17
-52 -8 -23 5 -48 16 -57 23 -8 8 -19 14 -22 14 -4 0 -25 11 -48 25 -30 19 -48
24 -72 20 -21 -4 -39 -1 -52 9 -14 11 -16 15 -6 16 20 0 -18 29 -39 30 -22 0
-65 68 -66 107 -2 34 21 59 41 44 5 -5 30 -11 55 -15z m265 -357 c10 -15 -1
-23 -20 -15 -9 3 -13 10 -10 16 8 13 22 13 30 -1z m663 -433 c40 -21 59 -46
75 -101 12 -42 19 -50 45 -57 26 -7 34 -17 56 -76 29 -77 36 -153 11 -132 -19
16 -55 3 -55 -19 0 -10 10 -31 22 -46 l22 -28 21 27 21 26 16 -32 c8 -18 20
-55 26 -83 36 -165 42 -196 42 -223 0 -17 4 -42 9 -55 6 -14 15 -61 21 -106
15 -109 7 -124 -62 -117 -66 8 -118 42 -194 131 -93 106 -129 190 -154 354 -6
41 -20 102 -30 135 -16 46 -20 87 -20 180 0 132 13 188 50 218 27 22 42 22 78
4z m-1004 -128 c22 -30 20 -54 -5 -77 -12 -11 -18 -24 -15 -30 4 -5 -6 -17
-21 -24 -22 -12 -35 -12 -63 -3 -30 10 -35 15 -32 39 2 15 -1 27 -7 27 -6 0
-11 7 -11 15 0 8 3 15 8 15 4 0 12 10 17 23 7 15 17 21 32 19 12 -2 24 2 28 8
11 18 53 11 69 -12z m466 -362 c0 -11 -19 -15 -25 -6 -3 5 1 10 9 10 9 0 16
-2 16 -4z m660 -502 c0 -9 -5 -14 -12 -12 -18 6 -21 28 -4 28 9 0 16 -7 16
-16z m30 -34 c0 -5 -2 -10 -4 -10 -3 0 -8 5 -11 10 -3 6 -1 10 4 10 6 0 11 -4
11 -10z m1413 -42 c15 -6 27 -14 27 -19 0 -5 33 -9 74 -9 41 0 77 -4 80 -9 3
-5 -15 -16 -39 -26 -51 -19 -77 -51 -50 -61 9 -4 29 3 45 15 16 11 32 21 36
21 4 0 15 6 23 14 9 8 53 19 97 25 45 5 93 15 107 22 49 22 70 -5 102 -136 16
-68 24 -303 10 -325 -3 -5 -3 -19 0 -32 10 -44 24 -172 18 -181 -2 -4 -10 -3
-17 2 -17 14 -64 -8 -72 -33 -6 -18 -8 -18 -26 7 -11 15 -26 27 -33 27 -8 0
-18 8 -24 17 -14 26 -21 12 -25 -50 -4 -79 -35 -113 -57 -63 -10 22 -14 23
-36 13 -33 -15 -44 5 -37 66 6 46 6 47 -20 47 -15 0 -29 -7 -32 -15 -9 -23
-23 -18 -35 12 -14 36 2 71 39 84 20 7 32 23 47 62 29 74 21 106 -33 136 -43
23 -45 23 -94 7 -46 -14 -54 -15 -81 -1 -28 14 -33 14 -56 -2 -20 -13 -44 -17
-99 -16 -66 2 -74 0 -88 -21 -14 -22 -13 -27 5 -57 12 -19 21 -44 21 -56 0
-12 8 -28 18 -35 28 -19 41 -50 35 -80 -4 -23 -1 -28 20 -33 37 -10 51 -85 16
-85 -5 0 -19 19 -30 43 l-21 44 -44 -44 c-52 -51 -77 -55 -94 -13 -7 16 -23
36 -36 45 -14 9 -24 25 -24 39 0 38 -10 56 -32 56 -12 0 -27 -8 -34 -17 -10
-14 -15 -15 -24 -6 -9 8 -7 14 8 22 17 9 19 16 12 46 -10 46 -25 62 -60 70
-31 7 -35 14 -45 88 -5 41 -3 51 18 77 14 16 30 53 36 82 15 66 39 116 60 123
9 3 32 0 51 -6 71 -22 422 -41 439 -23 11 11 -23 28 -59 30 -23 1 -44 4 -47 8
-4 3 -31 6 -62 6 -113 0 -137 24 -34 33 79 8 92 17 70 51 -12 18 -13 26 -4 30
14 6 51 0 90 -16z m863 -46 c18 -12 23 -74 8 -109 -7 -18 -16 -33 -19 -33 -14
0 -26 59 -20 102 7 48 11 54 31 40z m-2245 -69 c16 -10 29 -20 29 -23 0 -3
-14 -13 -30 -22 -22 -12 -37 -15 -53 -8 -12 4 -31 11 -41 15 -17 5 -16 8 15
30 41 29 43 29 80 8z m2337 -145 c-36 -22 -52 6 -21 37 16 16 17 16 25 -6 6
-15 5 -25 -4 -31z m-2333 22 c3 -5 2 -10 -4 -10 -5 0 -13 5 -16 10 -3 6 -2 10
4 10 5 0 13 -4 16 -10z m82 -112 c12 -14 6 -68 -8 -68 -5 0 -9 8 -9 17 0 14
-3 14 -22 -4 -19 -18 -25 -19 -35 -8 -19 21 -16 46 8 71 22 24 42 21 66 -8z
m1963 -61 c0 -18 -21 -47 -35 -47 -26 0 -58 104 -39 123 7 7 74 -61 74 -76z
m-2248 18 c26 -14 54 -25 63 -25 17 0 65 -43 65 -59 0 -5 -9 -29 -19 -54 -26
-61 -45 -63 -140 -16 -44 21 -84 39 -89 39 -14 0 -28 21 -36 53 -5 23 -1 34
23 57 37 37 70 38 133 5z m178 -86 c0 -5 -9 -9 -20 -9 -22 0 -27 16 -7 23 15
5 27 -1 27 -14z m-3136 -139 c3 -16 12 -30 20 -30 9 0 16 -16 20 -45 7 -46 2
-70 -15 -60 -5 4 -9 -3 -9 -14 0 -10 4 -21 10 -23 5 -1 12 -40 16 -85 6 -75 5
-83 -12 -90 -11 -4 -24 -14 -31 -22 -7 -10 -12 -11 -13 -4 0 6 -8 19 -17 29
-21 20 -21 21 -27 154 -5 104 5 182 26 207 16 20 25 16 32 -17z m4032 -47
c-11 -11 -19 6 -11 24 8 17 8 17 12 0 3 -10 2 -21 -1 -24z m458 -89 c1 -41
-14 -53 -38 -29 -21 21 -20 55 2 71 23 17 34 4 36 -42z m-1230 2 c37 -1 44
-29 9 -34 -13 -2 -23 2 -23 8 0 7 -8 9 -20 5 -16 -5 -20 -2 -20 15 0 13 4 19
11 14 7 -4 26 -7 43 -8z m-122 -23 c10 -9 18 -22 18 -30 0 -18 -29 -17 -36 2
-4 8 -15 15 -25 15 -19 0 -25 11 -12 23 11 12 36 8 55 -10z m-282 -27 c0 -8 5
-16 11 -18 6 -2 -17 -16 -50 -32 -34 -15 -61 -34 -61 -40 0 -18 -28 -39 -80
-61 -25 -10 -54 -27 -66 -37 -24 -21 -54 -24 -54 -4 0 7 12 27 28 44 15 16 43
50 64 74 24 30 50 48 77 56 22 7 43 17 46 22 10 16 85 12 85 -4z m-1010 -64
c11 -14 23 -37 26 -51 4 -14 16 -34 28 -43 l21 -17 -38 -36 c-20 -20 -40 -47
-43 -60 -19 -78 -114 54 -114 159 0 17 8 49 17 72 l17 41 33 -20 c18 -10 42
-31 53 -45z m1160 31 l43 -28 -28 -3 c-42 -5 -92 7 -111 26 -16 16 -16 17 7
23 40 11 45 10 89 -18z m227 -45 c-3 -8 -6 -5 -6 6 -1 11 2 17 5 13 3 -3 4
-12 1 -19z m-653 -203 c10 -20 21 -33 27 -30 5 4 9 -2 9 -12 0 -12 -16 -24
-48 -38 -49 -20 -96 -48 -145 -85 -15 -12 -35 -19 -43 -16 -13 5 -14 1 -9 -23
5 -25 3 -30 -17 -36 -49 -14 -170 -78 -181 -96 -7 -11 -17 -19 -23 -19 -11 0
-28 -29 -21 -36 2 -2 17 2 35 8 17 7 34 10 37 6 10 -10 -14 -58 -30 -58 -8 0
-25 -15 -37 -34 -14 -21 -34 -37 -51 -40 -34 -7 -34 -36 1 -51 34 -15 29 -45
-8 -45 -17 0 -63 -9 -103 -21 -39 -12 -90 -23 -112 -24 -46 -4 -171 -54 -215
-85 -26 -19 -30 -19 -30 -5 0 9 12 29 28 44 15 15 40 44 55 64 16 21 32 35 36
33 4 -3 27 11 50 30 24 19 54 34 67 34 13 0 24 5 24 10 0 6 8 13 18 17 9 3 42
29 73 57 67 62 97 84 126 98 13 6 25 19 28 29 4 10 16 27 28 37 26 21 43 46
58 85 6 15 17 27 24 27 7 0 28 17 47 38 22 26 56 48 103 67 39 16 93 46 120
66 28 21 53 38 56 38 4 1 14 -15 23 -34z m-766 -63 c-5 -27 -28 -26 -28 2 0
19 4 24 15 19 9 -3 15 -12 13 -21z m-2323 -51 c3 -5 1 -13 -5 -16 -15 -9 -43
3 -35 15 8 13 32 13 40 1z m556 -16 c5 4 9 -1 9 -9 0 -9 4 -16 8 -16 20 0 42
-150 42 -281 -1 -152 -12 -217 -42 -240 -18 -14 -24 -14 -48 -2 -59 29 -62 44
-56 271 6 227 10 258 33 284 13 15 17 15 30 2 8 -8 19 -12 24 -9z m1755 -108
c-5 -34 -11 -41 -25 -32 -12 7 -14 38 -4 74 6 23 7 23 20 5 7 -10 11 -31 9
-47z m2721 17 c-3 -3 -12 -4 -19 -1 -8 3 -5 6 6 6 11 1 17 -2 13 -5z m-3434
-29 c12 -2 38 -18 57 -35 38 -34 53 -36 130 -15 80 21 92 19 142 -24 39 -35
44 -44 42 -75 -4 -51 -18 -71 -64 -95 -56 -29 -90 -26 -152 11 -40 24 -68 33
-114 36 -57 4 -62 2 -82 -23 -16 -20 -27 -25 -39 -20 -10 4 -26 9 -37 10 -10
1 -26 12 -36 25 -10 13 -22 20 -29 16 -6 -4 -11 -3 -11 2 0 5 -17 26 -37 46
-22 22 -34 40 -28 44 6 4 11 18 13 32 3 33 39 59 82 61 19 1 49 5 65 9 29 7
46 6 98 -5z m646 -119 c16 -19 4 -109 -13 -99 -15 10 -86 11 -80 1 3 -4 -2 -8
-10 -8 -9 0 -16 5 -16 10 0 6 -13 10 -30 10 -36 0 -51 23 -36 56 9 19 19 24
48 24 20 0 40 5 43 10 9 15 81 12 94 -4z m-838 -159 c31 -26 53 -101 35 -116
-6 -5 -33 -12 -61 -15 -44 -6 -54 -3 -102 29 -29 19 -53 39 -53 45 0 10 19 23
37 26 7 1 19 9 28 17 8 9 24 14 34 12 11 -2 25 3 32 11 15 18 19 18 50 -9z
m-1307 -95 c2 -4 -2 -16 -10 -26 -11 -16 -16 -17 -29 -6 -10 8 -15 9 -15 1 0
-6 -7 -11 -15 -11 -23 0 -18 30 8 40 28 11 54 12 61 2z m-97 -44 c-3 -8 -6 -5
-6 6 -1 11 2 17 5 13 3 -3 4 -12 1 -19z m1170 -54 c-3 -3 -12 -4 -19 -1 -8 3
-5 6 6 6 11 1 17 -2 13 -5z m4483 -110 c0 -8 -4 -12 -10 -9 -5 3 -10 10 -10
16 0 5 5 9 10 9 6 0 10 -7 10 -16z m15 -84 c-3 -5 1 -10 11 -10 29 0 64 -47
64 -88 0 -20 6 -49 14 -64 14 -26 36 -115 36 -145 0 -13 -3 -13 -15 -3 -8 7
-15 22 -15 33 0 11 -16 49 -35 84 -19 34 -32 70 -29 78 4 10 0 15 -15 15 -15
0 -27 -11 -38 -35 -21 -44 -34 -41 -53 13 -13 38 -13 45 2 70 9 15 26 32 37
38 12 6 18 14 14 17 -3 4 1 7 11 7 9 0 14 -4 11 -10z m-3475 -20 c0 -5 -5 -10
-11 -10 -5 0 -7 5 -4 10 3 6 8 10 11 10 2 0 4 -4 4 -10z m2470 -37 c27 -35 13
-51 -30 -33 -29 12 -33 11 -69 -18 -41 -33 -51 -32 -51 5 0 67 107 100 150 46z
m-2660 -45 c18 -25 21 -34 11 -47 -6 -9 -16 -28 -22 -43 -10 -27 -39 -39 -39
-18 0 6 -9 10 -20 10 -15 0 -20 -7 -20 -25 0 -16 -6 -25 -15 -25 -17 0 -20
-16 -6 -25 6 -3 14 2 19 12 9 16 11 16 36 -1 15 -9 30 -24 33 -32 5 -14 -51
-87 -60 -77 -3 2 -20 -6 -37 -18 -26 -20 -32 -21 -41 -9 -7 11 -8 8 -4 -11 6
-23 3 -27 -22 -32 -15 -3 -45 -17 -65 -31 -42 -28 -50 -23 -52 33 -1 29 -5 36
-21 36 -14 0 -21 -9 -26 -34 -8 -41 -40 -85 -64 -89 -11 -3 -15 0 -10 7 3 6
11 9 16 6 5 -4 9 -1 9 4 0 6 -7 11 -15 11 -8 0 -15 7 -15 15 0 21 -33 19 -47
-4 -10 -16 -9 -20 12 -25 15 -4 22 -12 20 -23 -2 -10 -4 -21 -4 -25 -1 -5 -8
-8 -16 -8 -9 0 -20 -11 -25 -25 -13 -34 -37 -31 -45 5 -4 17 -8 30 -10 30 -17
0 -38 -17 -46 -36 -4 -13 -15 -24 -23 -24 -8 0 -17 -9 -21 -20 -3 -11 -17 -28
-31 -39 -13 -10 -24 -24 -24 -30 0 -5 -9 -15 -21 -21 -16 -9 -25 -8 -40 6 -18
16 -19 16 -25 -16 -4 -20 -14 -35 -26 -37 -10 -3 -18 -9 -18 -14 0 -5 -9 -9
-20 -9 -11 0 -28 -9 -37 -20 -10 -11 -25 -20 -34 -20 -25 0 -79 -33 -79 -47 0
-7 -7 -13 -15 -13 -24 0 -19 8 44 70 32 32 66 75 75 94 9 19 31 45 49 57 17
13 57 48 87 78 60 60 74 71 190 155 41 30 93 73 114 96 22 23 56 53 77 66 21
13 75 51 121 86 99 75 186 128 208 128 9 0 27 -14 40 -32z m-1025 -140 c27
-12 32 -23 15 -33 -6 -4 -8 -11 -5 -16 11 -16 -68 -10 -87 8 -17 15 -17 17 -2
35 20 21 42 23 79 6z m4812 -120 c-3 -8 -6 -5 -6 6 -1 11 2 17 5 13 3 -3 4
-12 1 -19z m-872 -78 c3 -5 2 -10 -4 -10 -5 0 -13 5 -16 10 -3 6 -2 10 4 10 5
0 13 -4 16 -10z m1275 6 c0 -3 -4 -8 -10 -11 -5 -3 -10 -1 -10 4 0 6 5 11 10
11 6 0 10 -2 10 -4z m-5358 -18 c12 -7 28 -19 36 -25 7 -7 17 -13 21 -13 14 0
42 -58 30 -65 -5 -4 -8 -12 -6 -19 3 -7 -3 -22 -12 -34 -13 -17 -28 -22 -71
-24 -124 -5 -227 100 -142 143 15 8 30 18 33 23 4 5 24 12 45 16 22 4 40 8 42
9 1 0 12 -5 24 -11z m395 -460 c13 -12 23 -25 23 -30 0 -13 -29 -9 -56 8 -19
13 -22 20 -13 30 15 18 19 18 46 -8z m6410 -443 c-1 -36 -17 -51 -17 -16 0 19
9 51 15 51 2 0 3 -16 2 -35z m-1272 -245 c3 -5 -1 -10 -9 -10 -9 0 -16 5 -16
10 0 6 4 10 9 10 6 0 13 -4 16 -10z m480 -101 c16 -17 16 -18 -10 -25 -31 -8
-75 10 -75 30 0 29 58 26 85 -5z m-6075 -139 c-6 -11 -15 -20 -19 -20 -5 0 -7
9 -4 20 3 11 12 20 20 20 11 0 11 -4 3 -20z m4298 -292 c14 -17 60 -248 54
-270 -6 -25 -41 -22 -52 5 -12 28 -50 204 -50 232 0 20 17 45 31 45 4 0 11 -6
17 -12z m2040 -239 c11 0 13 -2 4 -6 -17 -7 -44 16 -35 31 5 7 9 5 11 -6 2
-10 11 -18 20 -19z m-1153 -151 c2 -7 6 -73 9 -146 5 -117 4 -133 -11 -139 -9
-4 -21 1 -28 10 -17 23 -29 256 -14 273 14 17 38 18 44 2z m1285 -257 c0 -27
-15 -34 -31 -15 -10 13 -10 17 2 25 22 13 29 11 29 -10z m20 -71 c0 -27 -4
-50 -9 -50 -6 0 -12 -19 -14 -42 -3 -35 -4 -31 -5 18 -2 70 6 124 19 124 5 0
9 -22 9 -50z m-3522 -2 c4 -20 -35 -35 -51 -19 -7 7 -6 15 3 26 16 19 44 16
48 -7z m4099 -275 c-3 -10 -5 -4 -5 12 0 17 2 24 5 18 2 -7 2 -21 0 -30z
m-666 -361 c-8 -12 -10 3 -11 58 0 110 14 145 18 42 2 -45 -2 -90 -7 -100z"/>
<path d="M3927 7785 c-16 -16 -12 -52 9 -72 18 -19 29 -16 44 12 10 19 11 30
2 50 -13 28 -34 32 -55 10z"/>
<path d="M2280 4471 c0 -5 -8 -8 -17 -7 -12 1 -19 -7 -21 -23 -5 -35 7 -71 24
-71 11 0 14 6 10 23 -3 12 -3 16 0 9 7 -16 24 -6 24 15 0 9 8 22 18 29 15 12
15 15 2 24 -19 12 -40 13 -40 1z"/>
<path d="M2095 4390 c-3 -5 1 -10 9 -10 9 0 16 5 16 10 0 6 -4 10 -9 10 -6 0
-13 -4 -16 -10z"/>
<path d="M1460 4550 c0 -5 5 -10 10 -10 6 0 10 5 10 10 0 6 -4 10 -10 10 -5 0
-10 -4 -10 -10z"/>
<path d="M6086 9774 c-9 -22 1 -34 30 -34 29 0 31 11 6 33 -23 21 -28 21 -36
1z"/>
<path d="M6366 8535 c-6 -30 9 -104 39 -185 51 -142 68 -180 77 -174 11 7 4
105 -12 159 -40 139 -54 179 -74 202 l-24 27 -6 -29z"/>
<path d="M5730 8321 c-41 -3 -88 -14 -105 -23 -16 -9 -41 -19 -55 -22 -30 -6
-74 -75 -64 -100 4 -9 24 -26 46 -37 39 -20 40 -21 36 -68 -3 -42 1 -51 29
-79 17 -18 36 -32 41 -32 5 0 28 18 51 40 22 22 46 40 51 40 6 0 13 -13 16
-30 8 -38 27 -43 110 -30 54 8 74 16 90 36 l20 25 19 -21 c13 -15 31 -20 67
-20 26 0 48 3 48 8 0 8 -7 12 -96 56 -85 41 -93 44 -152 51 -64 8 -64 24 1 41
66 17 140 -8 226 -76 50 -40 71 -49 71 -31 0 13 -55 64 -105 99 -66 45 -78 58
-63 69 7 6 26 15 42 20 29 9 48 33 27 33 -6 0 -32 14 -58 30 -43 28 -53 30
-132 28 -48 -1 -120 -4 -161 -7z"/>
<path d="M4805 8254 c-33 -8 -95 -20 -138 -28 -68 -13 -84 -20 -125 -57 -26
-23 -52 -48 -58 -55 -12 -15 -11 -74 1 -94 9 -14 73 -5 95 15 19 16 73 9 60
-9 -5 -6 -22 -27 -38 -46 -16 -19 -34 -50 -41 -69 -10 -31 -9 -37 11 -58 12
-13 27 -23 33 -23 19 0 110 47 124 64 13 15 15 15 32 0 16 -14 32 -16 100 -11
45 4 84 9 86 11 3 2 7 23 10 45 6 43 21 52 43 26 19 -23 108 -65 125 -59 18 7
19 26 3 42 -16 16 -8 15 35 -3 20 -8 38 -15 41 -15 2 0 2 50 1 110 -4 119 -12
143 -64 187 -30 26 -53 30 -181 36 -60 3 -117 -1 -155 -9z m75 -214 c0 -5 -11
-10 -25 -10 -23 0 -37 -5 -85 -31 -8 -5 -31 -16 -50 -26 -19 -9 -41 -23 -49
-31 -22 -21 -25 -5 -6 25 34 52 90 80 168 82 26 0 47 -3 47 -9z"/>
<path d="M6752 8108 c-7 -7 -12 -19 -12 -27 0 -11 5 -8 16 7 18 25 15 39 -4
20z"/>
<path d="M6511 8014 c0 -11 3 -14 6 -6 3 7 2 16 -1 19 -3 4 -6 -2 -5 -13z"/>
<path d="M8952 7818 c-7 -7 -12 -29 -12 -49 0 -21 -5 -39 -11 -41 -6 -2 -12
-18 -13 -36 -1 -17 -9 -41 -19 -52 -18 -21 -52 -27 -62 -10 -3 5 -11 7 -19 4
-7 -3 -34 0 -60 6 -35 8 -52 8 -61 0 -11 -9 -18 -5 -30 14 -9 13 -24 25 -33
24 -9 0 -32 3 -50 5 -44 7 -48 -7 -29 -86 12 -45 16 -117 16 -268 1 -181 4
-220 26 -322 14 -64 25 -141 25 -170 0 -29 13 -105 29 -168 15 -63 34 -161 40
-219 25 -217 70 -412 116 -501 8 -15 15 -43 15 -61 0 -18 7 -46 16 -63 8 -16
20 -52 25 -80 10 -55 21 -85 87 -225 24 -52 53 -113 63 -136 18 -40 103 -159
141 -199 26 -28 84 -108 101 -142 8 -15 29 -38 46 -51 17 -12 40 -40 51 -62
20 -40 27 -44 104 -54 42 -6 76 7 76 28 0 10 14 13 48 11 63 -3 229 -80 236
-110 3 -11 27 -36 54 -56 l49 -36 6 116 c8 138 -16 617 -38 785 -25 185 -103
576 -122 608 -2 4 -14 3 -28 -2 -17 -6 -27 -5 -35 5 -6 7 -24 12 -40 11 -17
-1 -30 0 -30 4 0 3 -8 10 -19 15 -10 6 -44 29 -74 52 -46 36 -55 47 -52 70 1
15 -2 35 -8 44 -19 31 11 47 76 41 53 -4 62 -9 108 -54 28 -27 53 -47 56 -45
7 8 -41 168 -93 309 -134 364 -291 677 -506 1006 -88 134 -103 152 -127 152
-15 0 -32 -5 -39 -12z m112 -609 c22 -17 26 -29 26 -68 0 -56 -19 -79 -74 -88
-71 -11 -116 56 -82 121 28 55 85 71 130 35z m79 -440 c-14 -14 -43 0 -43 20
0 29 12 32 33 10 12 -13 16 -24 10 -30z m136 -35 c2 -2 -7 -4 -21 -4 -14 0
-28 -7 -32 -15 -3 -8 -1 -15 4 -15 6 0 10 5 10 10 0 7 25 10 64 8 59 -2 65 -4
71 -26 4 -15 0 -31 -10 -41 -8 -10 -15 -28 -15 -40 0 -17 -4 -22 -16 -17 -9 3
-27 6 -40 6 -17 0 -27 8 -34 25 -5 14 -14 25 -20 25 -5 0 -10 9 -10 20 0 22
-16 27 -23 8 -2 -7 -8 -10 -12 -6 -4 4 -2 14 4 22 7 9 10 24 6 36 -6 20 -4 21
32 14 21 -4 40 -8 42 -10z m-290 -160 c26 -5 31 -11 31 -34 0 -15 7 -34 16
-41 31 -26 31 -50 2 -121 l-28 -69 20 -42 c26 -54 25 -65 -7 -78 l-28 -11 23
-11 c17 -8 22 -18 22 -49 0 -40 -20 -55 -21 -15 0 21 -1 21 -10 -3 -10 -24
-11 -24 -25 -6 -7 11 -16 36 -20 55 -3 20 -10 49 -15 65 -5 16 -9 44 -9 61 0
20 -14 56 -35 91 -20 33 -38 68 -41 80 -9 34 10 88 34 99 12 5 22 15 22 22 0
14 21 16 69 7z m494 -567 c-1 -34 -7 -53 -20 -62 -27 -21 -38 -13 -41 33 -4
53 12 84 41 80 19 -3 22 -9 20 -51z m-473 -37 c0 -5 -5 -10 -11 -10 -5 0 -7 5
-4 10 3 6 8 10 11 10 2 0 4 -4 4 -10z"/>
<path d="M6552 7535 c0 -16 2 -22 5 -12 2 9 2 23 0 30 -3 6 -5 -1 -5 -18z"/>
<path d="M6553 7400 c0 -47 2 -66 4 -42 2 23 2 61 0 85 -2 23 -4 4 -4 -43z"/>
<path d="M9694 6285 c-4 -9 -4 -18 -1 -22 11 -10 59 7 54 20 -6 19 -46 21 -53
2z"/>
<path d="M9671 6254 c0 -11 3 -14 6 -6 3 7 2 16 -1 19 -3 4 -6 -2 -5 -13z"/>
<path d="M5588 5385 c-10 -11 24 -110 44 -127 26 -23 65 -14 101 24 50 54 33
83 -53 90 -30 3 -62 8 -71 12 -8 4 -18 4 -21 1z"/>
<path d="M6325 5337 c-4 -10 -5 -21 -1 -24 10 -10 18 4 13 24 -4 17 -4 17 -12
0z"/>
<path d="M6311 4955 c2 -28 7 -45 15 -45 7 0 14 -6 16 -12 3 -7 5 5 6 27 2 51
-6 75 -24 75 -11 0 -14 -11 -13 -45z"/>
<path d="M6252 4868 c6 -18 28 -21 28 -4 0 9 -7 16 -16 16 -9 0 -14 -5 -12
-12z"/>
<path d="M6818 3963 c7 -3 16 -2 19 1 4 3 -2 6 -13 5 -11 0 -14 -3 -6 -6z"/>
<path d="M7637 3583 c-3 -5 -2 -15 2 -22 7 -10 10 -10 16 -1 4 6 3 16 -3 22
-5 5 -12 6 -15 1z"/>
<path d="M7677 3554 c-11 -11 -8 -44 3 -44 15 0 24 30 13 41 -5 5 -12 6 -16 3z"/>
<path d="M7727 3512 c-20 -22 -22 -52 -4 -52 20 0 37 22 37 47 0 28 -11 29
-33 5z"/>
<path d="M7713 3256 c-6 -7 -8 -18 -4 -25 6 -9 11 -8 21 4 16 19 0 39 -17 21z"/>
</g>
</svg>
